Coordinates
version=1
nRows=6
nColumns=63
inDegrees=yes

Units are S.I. units (second, meters, Newtons, ...)
If the header above contains a line with 'inDegrees', this indicates whether rotational values are in degrees (yes) or radians (no).

endheader
time	pelvis_tilt	pelvis_list	pelvis_rotation	pelvis_tx	pelvis_ty	pelvis_tz	hip_flexion_r	hip_adduction_r	hip_rotation_r	knee_angle_r	knee_angle_r_beta	ankle_angle_r	subtalar_angle_r	mtp_angle_r	hip_flexion_l	hip_adduction_l	hip_rotation_l	knee_angle_l	knee_angle_l_beta	ankle_angle_l	subtalar_angle_l	mtp_angle_l	L5_S1_Flex_Ext	L5_S1_Lat_Bending	L5_S1_axial_rotation	L4_L5_Flex_Ext	L4_L5_Lat_Bending	L4_L5_axial_rotation	L3_L4_Flex_Ext	L3_L4_Lat_Bending	L3_L4_axial_rotation	L2_L3_Flex_Ext	L2_L3_Lat_Bending	L2_L3_axial_rotation	L1_L2_Flex_Ext	L1_L2_Lat_Bending	L1_L2_axial_rotation	L1_T12_Flex_Ext	L1_T12_Lat_Bending	L1_T12_axial_rotation	Abs_r3	Abs_r2	Abs_r1	Abs_t1	Abs_t2	neck_flexion	neck_bending	neck_rotation	arm_flex_r	arm_add_r	arm_rot_r	elbow_flex_r	pro_sup_r	wrist_flex_r	wrist_dev_r	arm_flex_l	arm_add_l	arm_rot_l	elbow_flex_l	pro_sup_l	wrist_flex_l	wrist_dev_l
      0.74509804	      2.00659729	     -5.02638997	     91.96526079	      0.13190282	      0.74043068	      0.77888066	      7.04945561	     -2.26038071	    -12.30212838	     11.00712222	      0.19211052	     32.85564208	     15.59806182	      0.00000000	      8.75274143	     -0.59136225	    -12.13062832	     10.42569830	      0.18196276	     32.11414891	     15.46492170	      0.00000000	      0.03085390	     -0.02113187	      0.49428278	      0.05729877	     -0.02810539	      0.52517545	      0.05068987	     -0.05138004	      0.52517545	      0.03526292	     -0.05138004	      0.43249743	      0.02865093	     -0.04309212	      0.40160476	      0.01762992	     -0.03273327	      0.37071208	      0.22038630	     -0.23904798	      2.74905252	      0.00000000	      0.00000000	     22.66564820	     -1.95946107	    -11.97356309	      7.91307775	    -17.16400032	     -4.73857363	     42.62923922	     81.01671456	    -14.42382362	      9.97831173	     13.10195078	    -17.01160415	     53.43857785	     50.03325074	     89.15194099	     -1.65894119	      6.58600268
      0.76470588	      2.04030452	     -5.12020729	     91.99276767	      0.13194639	      0.74124068	      0.77838157	      7.09830503	     -2.19324238	    -12.02678225	     10.92471934	      0.19067232	     32.42947728	     15.14357196	      0.00000000	      8.79476814	     -0.61726882	    -12.08831669	     10.34347080	      0.18052762	     31.83511225	     15.21734017	      0.00000000	      0.06868789	     -0.03771058	      0.37921975	      0.12756027	     -0.05015507	      0.40292098	      0.11284733	     -0.09168949	      0.40292098	      0.07850338	     -0.09168949	      0.33181728	      0.06378357	     -0.07689941	      0.30811605	      0.03924826	     -0.05841368	      0.28441481	      0.49063070	     -0.42658957	      2.10910648	      0.00000000	      0.00000000	     21.59235682	     -2.89650544	    -14.13626310	      8.23677954	    -17.93422682	     -8.60328770	     47.91861079	     83.35176749	    -15.36476023	     13.86874208	     11.01334961	    -18.16700888	     51.37543125	     50.09571594	     88.96958960	     -3.36622144	      5.67632603
      0.78431373	      1.89972221	     -5.15960478	     91.95304111	      0.13257027	      0.74253342	      0.77765365	      7.01006332	     -2.22513981	    -11.28255801	     10.56736953	      0.18443539	     32.00115552	     14.54330895	      0.00000000	      8.66994764	     -0.50032058	    -12.21176496	     10.05876290	      0.17555853	     31.44387011	     15.21460378	      0.00000000	      0.09886116	     -0.10205302	      0.24543530	      0.18359507	     -0.13573052	      0.26077500	      0.16241901	     -0.24813172	      0.26077500	      0.11298842	     -0.24813172	      0.21475588	      0.09180248	     -0.20810653	      0.19941618	      0.05648927	     -0.15808014	      0.18407647	      0.70615541	     -1.15444423	      1.36503749	      0.00000000	      0.00000000	     20.38793672	     -3.23929629	    -17.21968784	      8.70612565	    -18.20628540	    -11.45932962	     53.06815887	     85.47935969	    -16.00608441	     16.17089115	      8.78008224	    -19.18997285	     48.62435311	     49.41938456	     88.53782202	     -4.01748269	      4.68765539
      0.80392157	      1.66123677	     -5.18106303	     91.95029447	      0.13353654	      0.74414625	      0.77716673	      6.95613081	     -2.35062064	    -10.56072981	     10.22455169	      0.17845209	     31.64066818	     14.01992323	      0.00000000	      8.57127368	     -0.31425872	    -12.46208519	      9.86746432	      0.17221974	     31.04775450	     15.35450224	      0.00000000	      0.11854955	     -0.20202575	      0.05603460	      0.22015837	     -0.26869425	      0.05953676	      0.19476505	     -0.49120541	      0.05953676	      0.13549028	     -0.49120541	      0.04903027	      0.11008511	     -0.41197091	      0.04552811	      0.06773921	     -0.31293789	      0.04202595	      0.84678757	     -2.28535569	      0.31164763	      0.00000000	      0.00000000	     18.90690344	     -3.46413233	    -21.54816231	      9.29135812	    -18.06442456	    -13.49327262	     59.23123221	     86.58579143	    -16.31610615	     18.10667147	      6.61916416	    -20.33707018	     46.10734221	     47.95393329	     87.75837656	     -4.44800485	      3.88402877
      0.82352941	      1.40466400	     -5.23848306	     91.96849460	      0.13481039	      0.74570355	      0.77703620	      6.93668854	     -2.46123236	     -9.76021844	      9.81745353	      0.17134689	     31.24377054	     13.25297677	      0.00000000	      8.54567991	     -0.13979249	    -12.71330920	      9.72585487	      0.16974819	     30.63773561	     15.61245854	      0.00000000	      0.12649556	     -0.31322195	     -0.12343201	      0.23491490	     -0.41658520	     -0.13114651	      0.20781955	     -0.76156786	     -0.13114651	      0.14457177	     -0.76156786	     -0.10800301	      0.11746378	     -0.63872221	     -0.10028851	      0.07227956	     -0.48518081	     -0.09257401	      0.90354512	     -3.54322939	     -0.68649182	      0.00000000	      0.00000000	     17.47237330	     -3.48212451	    -26.32387391	      9.78306426	    -16.89924019	    -16.36235403	     66.85067803	     86.97983623	    -15.39191587	     19.24072919	      4.82536070	    -21.49221580	     44.44835844	     45.61946668	     86.73126355	     -4.71772717	      3.25025312
      0.84313725	      1.15652904	     -5.27485302	     91.80970065	      0.13634998	      0.74684722	      0.77716548	      6.95135987	     -2.51285323	     -8.36543391	      9.49058955	      0.16564204	     30.83533424	     11.84016730	      0.00000000	      8.51972634	     -0.00248976	    -13.07221715	      9.66163198	      0.16862729	     30.28360032	     15.81570597	      0.00000000	      0.11808783	     -0.40665202	     -0.18111235	      0.21930092	     -0.54084719	     -0.19243187	      0.19400650	     -0.98873372	     -0.19243187	      0.13496259	     -0.98873372	     -0.15847330	      0.10965636	     -0.82924480	     -0.14715378	      0.06747539	     -0.62990398	     -0.13583426	      0.84348960	     -4.60012899	     -1.00729254	      0.00000000	      0.00000000	     16.44214531	     -3.35929353	    -30.24834664	     10.16294890	    -14.82783562	    -20.07189713	     75.51539101	     86.18709367	    -12.35853982	     19.08233445	      4.02650946	    -22.41841596	     44.97948374	     42.28962878	     85.50131368	     -5.20769231	      2.48576880
